<?xml version="1.0" encoding="UTF-8" standalone="no"?>
<svg
   id="svg"
   width="400"
   height="430.03003"
   viewBox="0 0 400 430.03003"
   version="1.1"
   sodipodi:docname="sovngarde-tools-logo-filled-gradient2.svg"
   inkscape:version="1.3 (0e150ed6c4, 2023-07-21)"
   xmlns:inkscape="http://www.inkscape.org/namespaces/inkscape"
   xmlns:sodipodi="http://sodipodi.sourceforge.net/DTD/sodipodi-0.dtd"
   xmlns:xlink="http://www.w3.org/1999/xlink"
   xmlns="http://www.w3.org/2000/svg"
   xmlns:svg="http://www.w3.org/2000/svg">
  <defs
     id="defs1">
    <linearGradient
       id="linearGradient97"
       inkscape:collect="always">
      <stop
         style="stop-color:#6dd5c5;stop-opacity:1;"
         offset="0.31511253"
         id="stop97" />
      <stop
         style="stop-color:#b933ec;stop-opacity:1;"
         offset="0.73633438"
         id="stop98" />
    </linearGradient>
    <linearGradient
       id="swatch7"
       inkscape:swatch="solid">
      <stop
         style="stop-color:#9384d9;stop-opacity:1;"
         offset="0"
         id="stop7" />
    </linearGradient>
    <rect
       x="352.5"
       y="-57.5"
       width="170.5"
       height="186.5"
       id="rect2" />
    <inkscape:path-effect
       effect="fill_between_many"
       method="originald"
       linkedpaths="#path0,0,1|"
       id="path-effect60" />
    <linearGradient
       inkscape:collect="always"
       xlink:href="#linearGradient97"
       id="linearGradient98"
       x1="-305.71823"
       y1="-177.64823"
       x2="80.810183"
       y2="-177.64823"
       gradientUnits="userSpaceOnUse" />
  </defs>
  <sodipodi:namedview
     id="namedview1"
     pagecolor="#505050"
     bordercolor="#eeeeee"
     borderopacity="1"
     inkscape:showpageshadow="0"
     inkscape:pageopacity="0"
     inkscape:pagecheckerboard="0"
     inkscape:deskcolor="#505050"
     inkscape:zoom="1.4142136"
     inkscape:cx="228.74904"
     inkscape:cy="283.54982"
     inkscape:window-width="1710"
     inkscape:window-height="1328"
     inkscape:window-x="1476"
     inkscape:window-y="1467"
     inkscape:window-maximized="0"
     inkscape:current-layer="svgg"
     showborder="true" />
  <g
     id="svgg">
    <text
       xml:space="preserve"
       id="text2"
       style="font-size:16px;line-height:0;font-family:'RobotoMono NFM';-inkscape-font-specification:'RobotoMono NFM';letter-spacing:11px;white-space:pre;shape-inside:url(#rect2);display:inline;fill:#000000;fill-opacity:0;stroke-width:2.89134;paint-order:stroke fill markers" />
    <path
       d="m -120.07638,-385.50787 c -10.2606,-1.34924 -7.90827,13.70288 -8.40202,21.40509 -0.58253,13.35104 -1.46612,15.30686 -2.37723,18.55163 -1.6466,3.46912 -3.3271,5.39177 -6.14412,7.68516 -0.64968,0.52836 -2.42335,0.86125 -4.58601,0.86125 h -3.52626 l -4.35042,-5.68689 c -2.39225,-3.12824 -4.6666,-5.49316 -5.349,-5.89649 -2.16388,-0.98757 -5.59369,0.50733 -6.04083,1.1721 -4.00522,2.78169 -6.86865,7.08603 -6.85899,12.21799 0.51435,4.47678 1.06981,6.17827 2.34816,7.18287 l 1.42275,1.11991 v 15.269 c 0,0 0.44309,9.50871 0,15.26912 -3.40156,4.89401 -7.15705,7.12379 -12.81163,7.60987 -6.49494,-0.10733 -7.82266,5.12043 -11.86208,8.92041 -2.67281,2.0232 -4.56394,1.67442 -8.00096,-2.07842 -3.50221,-3.82403 -6.10298,-4.33037 -10.93167,-2.13159 -4.58203,2.08746 -6.38973,8.98656 -3.36278,12.83361 1.09813,1.39766 5.45509,11.00913 4.21499,12.48175 -1.89557,0.81463 -24.13525,0 -24.13525,0 h -24.13426 l -6.31357,-5.8714 c -9.80471,-8.21354 -7.53697,-5.92187 -9.80471,-8.21354 -15.79841,-15.96513 -17.08171,-17.84712 -21.12232,-18.90658 -1.99794,-0.52384 -8.25468,0.62363 -11.59142,3.77593 -1.61721,1.52699 -1.92222,1.72454 -1.92222,8.39 0,0 0.77042,4.65393 1.51764,6.28205 0.27357,0.5963 1.63691,0.47786 1.63691,0.47786 0.91113,-0.21178 0.75766,0.91409 0.98446,5.03599 0.28169,2.85748 0.70887,4.39053 1.28539,4.61211 1.3225,0.5073 1.10089,4.82866 -0.34078,6.66245 -2.00525,2.54972 -1.81376,16.13932 0.2344,16.65367 2.68702,0.67373 4.16591,17.04866 1.66134,18.38922 -1.10591,0.59156 -1.2934,1.22418 -1.2934,4.36339 0,3.37187 -0.16275,3.82406 -1.98724,5.54854 -3.59797,2.82851 -1.75515,8.24929 -2.10449,12.47923 -1.75156,21.22769 -2.06339,23.32766 4.20705,24.31529 1.42672,0.22453 3.58843,0.66172 4.80358,0.97152 l 2.20882,0.5635 0.23179,7.36728 c 0.16855,5.40218 0.50832,7.92879 1.27231,9.47385 2.75925,5.57963 5.20967,9.84984 6.35064,11.06398 0.69184,0.73596 1.43178,2.27397 1.64535,3.41799 0.40905,2.19374 3.31571,7.78542 4.83765,9.30741 1.43694,2.73683 3.64903,5.43984 6.71261,7.23291 3.67665,1.68849 5.16758,2.43339 6.68754,3.34182 2.41331,1.4428 6.68752,5.95056 7.96388,8.39901 2.71111,5.20262 20.00793,16.535439 19.90218,16.458848 0,0 3.28876,1.861833 5.28595,2.96039 2.31557,1.273813 7.44651,15.136226 7.71514,15.506534 0,0 2.85261,5.414717 4.67725,11.740537 0.5715,1.984183 1.49789,4.285256 2.05742,5.113414 0.55943,0.827171 1.36252,2.724153 1.78566,4.215055 2.67363,6.480613 8.183,16.827986 14.13833,22.027528 4.2062,3.946011 3.46989,3.460292 9.17007,8.226632 1.15199,0.878284 3.68866,3.868236 5.90949,6.047983 0,0 13.92022,14.4413338 14.98545,15.0053022 0.87733,-0.5639684 9.54483,-18.7568602 10.56402,-20.6843312 1.04124,-1.063457 1.70306,-7.973808 7.30122,4.594888 1.46347,2.60057 1.60706,3.318976 2.94897,5.459366 l 4.57187,7.2924041 c 2.38427,4.6762353 5.92475,11.5578041 7.92101,13.6312011 0.88534,0.9194215 2.78433,3.5851792 4.37447,5.3477849 2.77225,3.0750679 4.52737,3.0833369 4.77878,1.2352249 0.42514,-11.41943994 5.32495,-0.6121058 6.01705,0.335281 1.94256,2.255898 9.57393,12.221439 9.57393,12.221439 1.37196,1.504611 3.57886,3.506734 4.24058,4.090277 4.0826,4.458878 7.13782,4.364017 11.879147,-0.724907 10.40345,-13.750576 18.912066,-28.2167775 29.657371,-42.051701 9.942588,-18.965668 7.100671,-10.49686 11.160324,-5.900094 3.420923,3.23047 5.086168,4.3331 7.939073,0.116594 3.183333,-4.704859 2.457438,-3.935595 5.665345,-11.8027 3.375603,-10.611332 0.863223,-12.175679 5.558057,-3.844296 1.565103,2.277912 4.714604,5.906058 5.583753,6.302977 4.183663,-1.148341 9.658701,-10.736573 10.339971,-11.954858 0,0 0.679806,-1.263312 1.459864,-2.81539 0.779008,-1.553066 1.886944,-3.745813 2.46045,-4.872714 5.146489,-10.106501 16.4731909,-19.858087 25.5629958,-22.006709 13.6510322,-3.703432 18.9438492,-16.261212 24.6696742,-28.0325 1.176075,-2.48351 3.115157,-6.14212 4.308318,-8.12933 1.193137,-1.98717 3.786889,-6.86497 5.764096,-10.83938 1.977195,-3.97447 3.841076,-7.63203 4.141855,-8.12932 0.301912,-0.49632 1.233225,-2.12255 2.070433,-3.61348 0.837159,-1.48994 2.332111,-4.06466 3.320696,-5.71999 0.989573,-1.65637 2.571739,-4.63715 3.515211,-6.62438 0.943472,-1.98718 2.652939,-4.72941 3.796987,-6.09397 6.164138,-7.34727 6.82587,-10.11853 4.965001,-20.77646 -0.825403,-6.30275 4.342174,-3.96017 10.077866,-4.87507 4.008088,-2.1324 4.665258,-2.62126 3.785694,-6.25485 -2.315745,-11.61898 -4.392361,-3.40895 -2.469817,-14.534 1.961681,-15.25456 1.228176,-16.40443 -2.392164,-17.64515 -1.856369,-0.63614 2.077982,-7.06169 -3.524053,-8.47516 0.899371,-5.93368 0.46201,-16.40253 3.257362,-17.78719 2.532626,-1.25423 3.981428,-13.34596 1.76357,-14.71756 -2.593753,-1.60222 -1.376834,-4.88357 -0.948985,-8.6765 0.945387,-5.49539 2.264862,-8.03312 4.71086,-8.84843 5.002113,-1.66677 -0.541333,-14.91653 -3.346735,-17.74976 -2.147317,-2.22869 -5.722032,-3.27611 -9.678397,-0.81791 -7.313101,5.67853 -13.802616,12.46818 -20.703357,18.71049 0,0 -1.344514,0.74495 -2.309049,1.65634 -12.764478,12.05358 -13.221598,12.17047 -39.5656026,12.17047 -25.3695554,0 -25.0386894,0.10098 -20.5008054,-6.28045 3.097838,-5.44283 4.075191,-11.22063 2.449461,-17.27129 0,0 -0.359966,-1.28641 -1.310487,-2.04341 -3.11612,-2.48548 -7.822455,-1.58511 -12.786505,2.44343 -7.164406,7.80164 -6.435853,2.85575 -9.689117,1.51672 -6.495699,-1.31756 -6.015261,-12.08744 -16.540587,-12.08744 -1.115033,0 -8.063009,-1.9078 -8.149369,-7.52673 l -0.02025,-14.00069 c -0.0122,-8.17139 0.211772,-14.0007 0.535406,-14.0007 4.268229,0 6.001747,-10.36518 2.682039,-16.03003 -4.252155,-7.25603 -10.739122,-7.04344 -17.749529,0.58355 -1.213151,1.31941 -1.857881,1.94911 -4.255144,4.15485 -3.387908,3.11821 -8.098231,1.09288 -11.277564,-4.84669 -0.36999,-0.69181 -1.457814,-2.11755 -2.417337,-3.16735 -1.715492,-1.87885 -1.749616,-2.05532 -2.092508,-10.72204 -0.462192,-11.68364 -1.513941,-23.52768 -2.202732,-24.81609 -1.15205,-2.15161 -0.98009,-2.29651 -2.96128,-3.54526 z"
       id="path60"
       inkscape:original-d="M 0,0"
       inkscape:path-effect="#path-effect60"
       transform="translate(313.59492,391.55471)"
       style="fill:url(#linearGradient98);fill-opacity:1" />
    <path
       id="path0"
       d="m 193.75013,44.582692 c -8.41307,-1.106295 -6.4843,11.235531 -6.88915,17.550877 -0.47764,10.947045 -1.20213,12.550697 -1.94918,15.211216 -1.35011,2.844461 -2.72802,4.420925 -5.03781,6.301359 -0.5327,0.433227 -1.987,0.70618 -3.76025,0.70618 h -2.89132 l -3.56708,-4.662908 c -1.9615,-2.564968 -3.82633,-4.50406 -4.38586,-4.834766 -1.77425,-0.809747 -4.58648,0.415982 -4.95311,0.961054 -3.28404,2.280812 -5.63188,5.810116 -5.62396,10.018008 0.42174,3.670693 0.87718,5.065806 1.92535,5.889516 l 1.16657,0.918262 v 12.51966 c 0,0 0.36331,7.79656 0,12.51975 -2.78907,4.01279 -5.86835,5.84108 -10.50476,6.23963 -5.32546,-0.088 -6.41411,4.19845 -9.72619,7.3142 -2.19154,1.6589 -3.74215,1.37292 -6.5603,-1.70418 -2.8716,-3.13547 -5.00408,-3.55064 -8.96331,-1.74777 -3.75699,1.71159 -5.23919,7.36843 -2.75728,10.52278 0.9004,1.146 4.47285,9.02682 3.45604,10.23428 -1.55425,0.66795 -19.78944,0 -19.78944,0 H 83.150453 l -5.176748,-4.81419 c -8.039264,-6.73461 -6.179857,-4.85558 -8.039264,-6.73461 -12.953739,-13.09044 -14.005967,-14.63356 -17.319027,-15.50225 -1.63819,-0.42952 -6.76834,0.51134 -9.504263,3.09603 -1.326013,1.25204 -1.576107,1.41402 -1.576107,6.8793 0,0 0.631704,3.81594 1.244378,5.1509 0.224309,0.48893 1.342165,0.39181 1.342165,0.39181 0.747069,-0.17364 0.621237,0.7495 0.807202,4.12921 0.230968,2.34296 0.581228,3.59997 1.053941,3.78165 1.084364,0.41596 0.902658,3.95921 -0.279423,5.46281 -1.644184,2.09061 -1.487168,13.23326 0.192197,13.655 2.203196,0.55242 3.415794,13.97887 1.362193,15.07805 -0.906773,0.48504 -1.060506,1.00375 -1.060506,3.57771 0,2.76473 -0.133444,3.1355 -1.629413,4.54947 -2.950122,2.31921 -1.43912,6.76392 -1.725559,10.23221 -1.43617,17.40542 -1.691853,19.12727 3.449524,19.93707 1.16983,0.1841 2.942296,0.54257 3.93865,0.79659 l 1.811096,0.46203 0.190055,6.04073 c 0.138201,4.42946 0.416791,6.50112 1.043214,7.76798 2.262424,4.57496 4.271616,8.07627 5.207147,9.07179 0.567265,0.60345 1.173969,1.86452 1.349087,2.80255 0.335392,1.79873 2.718677,6.38357 3.966575,7.63151 1.178203,2.24404 2.991987,4.46034 5.503934,5.93055 3.014632,1.38446 4.237102,1.99523 5.483382,2.74009 1.978768,1.18301 5.483359,4.8791 6.529902,6.88668 2.222939,4.26583 16.405285,13.55806 16.318583,13.49526 0,0 2.696582,1.52659 4.334152,2.42734 1.89863,1.04445 6.10569,12.41079 6.32595,12.71442 0,0 2.33897,4.43974 3.83506,9.62653 0.4686,1.62691 1.22818,3.51365 1.68696,4.19269 0.4587,0.67823 1.11719,2.23364 1.46414,3.45609 2.19221,5.31371 6.70956,13.79793 11.59257,18.06124 3.44883,3.23549 2.8451,2.83723 7.5189,6.74534 0.94457,0.72014 3.02448,3.17172 4.84543,4.95898 0,0 11.41374,11.84102 12.28716,12.30344 0.71936,-0.46242 7.82618,-15.37949 8.66186,-16.9599 0.85375,-0.87197 1.3964,-6.53804 5.98656,3.76753 1.19995,2.13231 1.31769,2.72136 2.41797,4.47635 l 3.74866,5.97933 c 1.95496,3.83423 4.85794,9.4767 6.49475,11.17676 0.72592,0.75387 2.28298,2.93963 3.5868,4.38486 2.27308,2.52137 3.71217,2.52815 3.91831,1.01281 0.34859,-9.36325 4.36614,-0.50189 4.93362,0.27491 1.59278,1.8497 7.85004,10.02084 7.85004,10.02084 1.12492,1.23369 2.93445,2.87531 3.47702,3.35378 3.34748,3.65601 5.85258,3.57823 9.74018,-0.59438 8.5302,-11.27464 15.50675,-23.13605 24.31725,-34.47985 8.15232,-15.5507 5.82212,-8.60679 9.15079,-4.83772 2.80495,2.64879 4.17035,3.55288 6.50956,0.0956 2.61014,-3.8577 2.01495,-3.22695 4.64524,-9.6775 2.76779,-8.70065 0.70779,-9.98332 4.55727,-3.15209 1.28329,1.86775 3.86569,4.84261 4.57834,5.16806 3.43035,-0.94157 7.91955,-8.80334 8.47815,-9.80226 0,0 0.5574,-1.03584 1.197,-2.30845 0.63874,-1.27342 1.54718,-3.07134 2.01742,-3.99533 4.21981,-8.28672 13.50702,-16.28243 20.96011,-18.04417 11.19302,-3.03659 15.53281,-13.33321 20.22764,-22.98495 0.96431,-2.03633 2.55424,-5.03617 3.53256,-6.66556 0.9783,-1.62936 3.10502,-5.62886 4.72621,-8.88764 1.62118,-3.25882 3.14945,-6.2578 3.39607,-6.66555 0.24755,-0.40695 1.01117,-1.74036 1.69763,-2.96283 0.68642,-1.22166 1.91219,-3.33278 2.72277,-4.69005 0.81139,-1.35812 2.10867,-3.80218 2.88226,-5.43159 0.77359,-1.62937 2.17525,-3.87783 3.1133,-4.99669 5.05422,-6.02431 5.5968,-8.29658 4.071,-17.03544 -0.67678,-5.16787 3.56032,-3.2471 8.26324,-3.99726 3.28639,-1.74844 3.82523,-2.14927 3.10404,-5.1286 -1.89877,-9.52686 -3.60147,-2.79513 -2.0251,-11.917 1.60846,-12.50781 1.00703,-13.45064 -1.96143,-14.46795 -1.52211,-0.5216 1.70382,-5.79016 -2.88951,-6.94912 0.73743,-4.86526 0.37882,-13.44908 2.67084,-14.58442 2.0766,-1.02839 3.26453,-10.94288 1.44602,-12.06751 -2.12672,-1.31372 -1.12892,-4.00423 -0.77811,-7.1142 0.77516,-4.50589 1.85705,-6.58668 3.86262,-7.25518 4.10143,-1.36665 -0.44386,-12.23065 -2.74412,-14.55373 -1.76067,-1.82739 -4.69172,-2.68621 -7.9357,-0.67064 -5.9963,4.65605 -11.31731,10.22316 -16.9755,15.34147 0,0 -1.10242,0.61082 -1.89328,1.3581 -10.4661,9.88321 -10.84091,9.97905 -32.4414,9.97905 -20.8015,0 -20.53021,0.0828 -16.80942,-5.14959 2.54004,-4.46279 3.34141,-9.20024 2.00841,-14.16141 0,0 -0.29515,-1.05478 -1.07452,-1.67547 -2.55503,-2.03795 -6.41394,-1.2997 -10.48416,2.00346 -5.87438,6.39687 -5.27701,2.34154 -7.94449,1.24362 -5.32608,-1.08032 -4.93215,-9.91097 -13.56228,-9.91097 -0.91426,0 -6.61118,-1.56428 -6.68199,-6.17146 l -0.0166,-11.47972 c -0.01,-6.700051 0.17364,-11.479728 0.439,-11.479728 3.49969,0 4.92107,-8.498822 2.19911,-13.143652 -3.48651,-5.949506 -8.80543,-5.775197 -14.55354,0.47847 -0.99471,1.081843 -1.52335,1.598157 -3.48896,3.406732 -2.77788,2.556737 -6.64006,0.896092 -9.24692,-3.973997 -0.30337,-0.567242 -1.19532,-1.736263 -1.98207,-2.597033 -1.4066,-1.540545 -1.43458,-1.68524 -1.71573,-8.791422 -0.37897,-9.579881 -1.24134,-19.291278 -1.80611,-20.347693 -0.94461,-1.764189 -0.80361,-1.883003 -2.42807,-2.906902 m -0.68853,3.518553 c 0.35352,0.281087 0.67904,3.179045 0.86488,7.714503 0.70288,17.126736 1.42961,24.043838 2.48433,23.639393 0.89693,-0.344479 1.4847,0.197429 2.24107,2.066707 1.71899,4.24695 4.87173,6.793816 9.01342,7.280492 2.89651,0.595642 4.54857,-1.28541 6.09751,-3.549809 1.88091,-2.125128 4.33406,-4.857768 5.45213,-6.071175 1.87106,-1.59861 2.7903,-1.639427 4.4434,-1.221614 3.14698,1.285743 3.68875,2.436662 3.30483,7.017387 -0.23692,2.821412 -0.35887,2.741536 -1.1871,3.254401 -3.699,1.529295 -4.45213,28.535457 -1.59221,32.205487 2.8701,4.29992 5.34511,5.02715 9.53937,5.37436 4.87915,0.38475 5.01973,0.4686 6.60557,3.93375 0.87878,1.91873 1.51017,2.67013 2.34622,2.78933 0.7333,0.10537 2.12328,0.38332 2.82125,1.65099 1.61704,2.93732 1.37556,2.35673 3.61639,2.48642 2.35609,-0.0504 2.50345,-0.32512 5.02646,-1.82813 1.33838,-1.45184 3.10015,-3.3607 3.91482,-4.24364 1.74121,-1.88424 3.06396,-2.01745 4.89804,-0.49162 1.64256,1.36795 0.95603,3.26206 0.17554,6.13854 -0.1715,1.21906 -5.67351,10.70289 -5.67351,14.3875 0,0.81967 10.24291,2.78447 32.50358,2.22541 l 13.031,-0.32635 5.9717,-5.18493 c 9.35457,-8.12261 4.04988,-4.23344 9.3505,-8.58928 0,0 10.42584,-9.29375 12.16374,-12.11766 9.46592,-11.27709 14.97665,12.74536 9.70153,7.82715 -1.1018,-0.49945 -1.22409,0.98075 -2.76554,4.96217 -1.28836,3.01578 -2.06069,5.63288 -2.158,8.99126 -0.069,4.19842 -0.01,4.43106 1.31452,4.91856 1.68448,0.62236 1.00049,7.94885 -0.76044,8.15111 -1.62363,0.18744 -1.58088,0.0255 -2.5764,9.59794 -1.05889,10.18247 -1.06791,10.05751 0.76043,10.42333 l 1.51674,0.30335 -0.33047,2.65046 -0.3313,2.65124 1.82753,1.12954 1.82753,1.12875 -0.319,3.75532 c -0.17507,2.06428 -0.56641,5.92487 -0.86893,8.57773 -0.53108,4.6473 -0.5122,4.86436 0.51379,5.9569 0.60014,0.63796 1.06541,1.77737 1.06541,2.60767 0,0.90882 0.23073,1.99137 0.0978,2.86208 -0.0828,0.54574 -0.51486,0.70245 -3.1701,0.97138 -7.37585,0.66839 -8.72739,2.52463 -7.74828,10.64286 l 0.50152,4.1647 -1.98619,1.98616 -1.98619,1.98622 -3.58513,-1.70667 c -1.97142,-0.93884 -4.53306,-2.64632 -5.69223,-3.79315 -1.15996,-1.14766 -2.80414,-2.44658 -3.65504,-2.88637 l -1.54799,-0.7999 0.23851,-11.13777 c 0.25066,-11.73786 0.0533,-12.90277 -2.2032,-12.98414 -12.6167,-0.45792 -12.94063,-0.27207 -12.50241,7.16291 0.16104,2.72608 0.41924,7.17771 0.57464,9.89392 0.15461,2.71539 0.31896,5.49242 0.36501,6.17143 0.11679,1.72644 -3.88192,2.11445 -5.3272,0.5171 -0.72259,-0.79906 -1.51921,-1.01031 -3.80055,-1.01031 h -2.88556 v -10.83523 c 0,-13.14448 0.45549,-12.3717 -7.30181,-12.3717 -7.08318,0 -7.01741,-0.055 -7.01741,5.85576 0,4.23382 0.96184,12.82715 1.82668,16.31616 0.44229,1.78721 -4.62097,1.15829 -7.64302,-0.94792 -1.85299,-1.29231 -2.53531,-1.474 -5.55406,-1.474 h -3.442 v -4.41628 -4.41631 l -2.54849,-2.12594 c -1.40168,-1.16902 -3.56788,-3.03269 -4.81419,-4.14172 -1.24547,-1.10981 -3.37635,-2.75645 -4.73443,-3.65996 -1.35727,-0.90347 -3.57943,-2.55914 -4.93753,-3.67886 -1.35727,-1.11971 -3.13463,-2.44984 -3.94935,-2.95542 -1.50934,-0.93639 -2.48762,-1.85382 -8.13132,-7.62823 -5.32801,-5.45049 -10.59186,-10.42664 -11.03004,-10.42664 -0.22787,0 -0.34857,2.70224 -0.26869,6.0046 l 0.14557,6.00538 2.97598,3.29576 c 3.3599,3.72001 5.97417,6.87686 8.98962,10.85578 3.23204,3.66525 6.48846,7.53641 9.78211,11.44274 0.94212,0.99476 2.47946,3.10504 3.4166,4.69085 0.93639,1.58586 3.16344,4.32015 4.94738,6.07777 3.87949,3.8211 3.91072,3.96417 0.85829,3.96417 -5.03533,0 -7.75894,-0.91255 -9.38916,-3.14622 -0.818,-1.12047 -2.01083,-2.59368 -2.65043,-3.27274 -1.60884,-1.70746 -10.57298,-12.36347 -12.9776,-15.42577 l -1.97467,-2.51559 -0.13392,10.01066 -0.13392,10.01147 -5.05013,-0.42341 c -2.77786,-0.23263 -9.4944,-0.42257 -14.92597,-0.42257 h -9.875 l -0.15628,1.3581 c -0.15319,1.33344 -0.21527,1.3573 -3.53994,1.3573 h -3.38458 l -0.34034,-1.54802 -0.33954,-1.54804 -12.16618,0.30421 c -6.69182,0.16698 -13.3286,0.44722 -14.74835,0.62233 l -2.58219,0.31817 -0.13392,-10.00573 -0.13344,-10.00654 -4.54041,5.62394 c -4.47385,5.54175 -5.58616,6.83898 -9.75336,11.37287 -1.15912,1.26108 -2.74084,3.17329 -3.51443,4.25107 -1.33101,1.85051 -1.61132,1.98863 -5.13153,2.52464 -7.49258,1.14027 -7.63066,0.99393 -3.21028,-3.39443 1.77491,-1.76257 4.21736,-4.7081 5.42665,-6.54636 5.48597,-8.3381 11.15732,-13.79025 11.65484,-14.46391 2.95376,-4.00195 6.682,-8.54485 9.69658,-11.81681 3.24648,-3.52348 3.33692,-3.81943 3.52269,-11.50603 0.0626,-2.60274 -0.0913,-4.04964 -0.42994,-4.04964 -0.53026,0 -6.44358,5.77522 -12.31747,12.02972 -3.15193,3.35661 -5.536,5.29839 -13.41656,10.92894 -2.2805,1.62939 -4.81502,3.63447 -5.63217,4.45575 -0.81716,0.82048 -2.59698,2.30023 -3.95508,3.28754 -4.39659,3.19793 -4.62842,3.59998 -4.79202,8.31219 l -0.14558,4.1886 -3.40925,0.14796 c -2.82144,0.12274 -3.75778,0.39298 -5.4316,1.57182 -1.99685,1.40744 -7.71122,2.64799 -7.69067,1.66969 0.005,-0.2343 0.44557,-3.09356 0.97828,-6.35151 2.42027,-14.78947 1.74944,-16.54136 -6.33174,-16.54136 -7.407083,0 -6.99933,-0.72098 -6.99933,12.37167 v 10.83525 h -2.885633 c -2.259118,0 -3.080426,0.21456 -3.780016,0.98732 -0.656823,0.72592 -1.520875,0.98736 -3.262061,0.98736 h -2.367633 l 0.248404,-4.0735 c 1.270947,-20.8294 1.334291,-20.21532 -2.125937,-20.78748 -4.041408,-0.66753 -8.713331,-0.36092 -10.428257,0.68398 l -1.641735,1.00131 0.121788,11.44354 0.120599,11.4444 -1.267665,0.51793 c -0.697949,0.28525 -2.489302,1.67295 -3.980586,3.08366 -1.492092,1.41075 -3.292508,2.71043 -4.000305,2.88885 -3.535822,0.88703 -0.706156,1.27832 8.215999,1.13613 l 9.505072,-0.152 5.789184,11.73622 c 3.184825,6.45509 6.073625,12.02891 6.418913,12.38568 0.34612,0.35759 1.823417,2.02235 3.283445,3.70026 3.523504,4.05045 3.543224,3.81204 0.388865,-4.72132 -1.489618,-4.03068 -3.413344,-9.32748 -4.274922,-11.77154 -2.005885,-5.6889 -2.768796,-7.37008 -3.69693,-8.13955 -2.24927,-1.86702 1.991923,-1.60392 11.980361,0.7415 0.90188,0.21194 2.1679,2.40548 6.34249,10.9906 l 5.21454,10.72583 0.68725,6.91222 c 0.37818,3.80214 0.93308,9.35707 1.23401,12.34371 l 0.54747,5.43162 5.01398,9.75003 c 2.75811,5.3625 5.14799,9.75086 5.31157,9.75167 1.28902,0.005 1.48055,-24.51651 0.2794,-35.79561 -1.53401,-14.40559 -2.68662,-26.65484 -2.52549,-26.83485 0.0854,-0.0944 2.00265,0.72264 4.2618,1.81685 2.25826,1.09421 5.26544,2.44325 6.68275,2.99817 1.41731,0.55487 4.39084,1.92125 6.60802,3.03597 l 4.03156,2.02731 3.51444,-0.84183 c 2.16131,-0.51791 6.48468,-0.93475 11.23558,-1.08351 l 7.72192,-0.24246 6.34986,2.23529 c 12.85262,4.52478 10.74724,4.14826 17.06501,3.04826 6.51018,-1.13362 18.90574,-1.28652 21.37861,-0.26305 5.8648,2.42681 13.40012,3.43962 26.11628,3.50949 7.88869,0.19148 9.38178,0.35123 14.14169,-2.58134 2.57073,-1.44854 5.67327,-3.04667 6.89491,-3.5523 2.53038,-1.04567 2.21307,-0.91168 10.12243,-4.27324 7.98667,-3.39524 14.67031,-5.96756 14.9013,-5.73656 0.22264,0.22264 -2.94063,3.19272 -5.53761,6.79379 -4.03076,5.58906 -6.75412,11.8571 -9.67194,18.12142 -1.05228,2.25667 -1.91385,4.18779 -1.91385,4.29134 0,0.10299 -0.97088,2.25664 -2.15798,4.7846 -6.47817,13.79969 -5.97337,12.39225 -9.25434,25.82772 -1.12792,4.6169 -2.15552,8.67146 -2.28378,9.01097 -0.52695,1.38774 0.8558,0.48834 1.89737,-1.23393 0.61496,-1.01857 3.14698,-4.96217 5.62646,-8.76436 3.90984,-5.99551 4.62917,-7.43667 5.42008,-10.86234 2.84851,-12.33883 3.38371,-13.61555 10.13309,-24.19669 2.7187,-4.26258 5.42337,-8.58678 6.87357,-10.98896 1.47892,-2.45064 11.50929,-13.4848 13.2727,-14.60042 1.51347,-0.95772 29.36028,-3.76189 37.54258,-3.7808 l 2.14156,-0.005 -3.69039,7.03545 c -2.02891,3.87045 -4.96378,9.4804 -6.52165,12.46791 -1.55707,2.98666 -3.77835,7.20809 -4.93421,9.38091 -1.1567,2.1728 -3.26782,6.17146 -4.69169,8.88764 -10.32741,20.37619 -6.97531,19.40795 -23.90241,27.6117 l -10.54252,5.14716 -1.5694,2.74251 c -2.23529,3.90658 -2.49587,3.84985 -2.50246,-0.53929 -0.002,-2.12102 -0.13487,-4.64238 -0.29431,-5.60341 -0.26475,-1.59897 0.01,-2.12349 3.19876,-6.1723 2.12679,-2.69646 4.09978,-5.86972 5.05342,-8.1272 5.07482,-12.00917 6.02103,-14.19676 6.65406,-15.38224 0.93882,-1.75765 0.90592,-1.99028 -0.61001,-4.3053 -1.55786,-2.37995 -1.47235,-2.41368 -3.88194,1.51921 -5.43241,8.86469 -8.24314,12.71785 -11.4567,15.69956 l -3.45856,3.20944 -0.35102,7.90035 c -0.55328,12.45065 -1.09421,16.92938 -2.50412,20.73732 -3.13875,8.47416 -3.20288,8.8918 -1.1534,7.45644 2.07335,-1.45184 1.91136,-0.82292 -1.01198,3.93451 -1.59651,2.59865 -3.04341,4.71146 -3.2152,4.69502 -0.27547,-0.0254 -1.88262,-2.92174 -6.13038,-11.04402 -1.59323,-3.04589 -1.31619,-3.48735 -6.28159,10.01803 -2.3463,6.38107 -4.42126,11.76745 -4.61115,11.96804 -0.19053,0.20124 -1.31538,-2.13169 -2.5,-5.18412 -2.99244,-7.71127 -2.77292,-7.62 -6.23969,-2.60193 -1.60722,2.32653 -4.35051,6.28081 -6.09584,8.78738 -1.74449,2.50654 -5.28607,7.6685 -7.86826,11.47066 -2.58221,3.80221 -5.99391,8.80134 -7.58137,11.10898 -1.58747,2.30846 -4.82325,7.1333 -7.19086,10.72174 -4.98191,7.55095 -4.40235,7.39638 -8.23491,2.19827 -6.66803,-9.04465 -18.19214,-23.78235 -18.59664,-23.78235 -0.23824,0 -0.43241,2.3331 -0.43241,5.18412 0,5.71847 -0.29346,6.19694 -1.88917,3.08616 -1.30384,-2.54272 -2.2476,-4.23543 -12.17522,-21.84799 -4.28641,-7.60437 -8.05159,-14.10551 -8.36726,-14.44833 -0.44641,-0.48337 -1.76833,1.79875 -5.9339,10.24577 -2.94803,5.97745 -5.51623,10.8681 -5.70698,10.8681 -0.35759,0 -14.44666,-14.13839 -24.08822,-24.17205 -4.19101,-4.36122 -5.68474,-6.28326 -6.52246,-8.3944 -0.59769,-1.50525 -1.61952,-3.90904 -2.27065,-5.3428 -1.64069,-3.6108 -0.79434,-2.27011 -2.14566,-5.23757 -0.52859,-1.16077 -1.43455,-3.3114 -2.01331,-4.77799 -0.57792,-1.46743 -1.6154,-3.89343 -2.30517,-5.39214 -0.68969,-1.49787 -1.53728,-3.51529 -1.88259,-4.48206 -0.34525,-0.96759 -1.05721,-2.74498 -1.58253,-3.95016 -0.52531,-1.20518 -1.3392,-3.08038 -1.80944,-4.16636 -0.78508,-1.81685 -1.45015,-2.29204 -8.293253,-5.92567 -12.095491,-6.4222 -11.427965,-5.85988 -12.986636,-10.93717 -0.737436,-2.40296 -2.621652,-8.3681 -4.186103,-13.25629 -1.564452,-4.88814 -3.146981,-9.9432 -3.516936,-11.23308 -0.82949,-2.89543 -1.18051,-2.90607 -3.917242,-0.11845 l -2.185165,2.22705 1.631863,4.80927 c 0.897734,2.64465 1.980433,5.64451 2.407071,6.66553 1.085174,2.60196 0.755537,2.6266 -3.291651,0.24586 l -3.574476,-2.10208 -5.144659,-10.351 c -2.913086,-5.86337 -7.021645,-11.00099 -6.224077,-17.6553 0.473522,-3.84495 0.344456,-4.43707 0.08944,-5.70988 -0.39543,-3.97033 -3.382278,-4.23022 -6.874761,-4.66578 -4.464836,-0.85316 -3.961461,-0.64636 -4.175447,-1.91628 -0.202424,-4.19274 1.271186,-13.04965 0.933938,-17.90528 -0.346739,-3.04315 -1.115002,-4.64554 1.761714,-6.49698 1.469923,-0.76046 1.484719,-0.80649 1.155891,-3.70847 -0.33211,-2.93568 -0.330516,-2.9382 0.981559,-2.9382 1.860405,0 1.917969,-0.48006 1.0523,-8.69364 -1.1871,-11.26267 -1.118047,-10.97413 -2.647151,-11.15089 -1.825059,-0.21123 -2.407928,-8.29904 -0.598474,-8.29904 1.701725,0 1.53322,-10.19315 -0.179114,-10.84507 -1.03993,-0.39543 -1.189549,-0.77031 -1.206842,-3.02774 -0.429825,-3.92995 -0.676137,-4.80123 -2.224271,-4.78087 -1.146305,0.36111 -1.332935,0.0166 -1.20218,-4.14381 0.235965,-2.85157 0.553898,-3.16299 2.557904,-4.94473 3.121481,-1.61131 5.547106,-2.30698 7.09593,-0.0725 2.289542,3.30238 7.293598,8.65995 10.554065,11.2989 1.99687,1.6154 4.748397,4.048 6.114753,5.4061 2.471177,2.45393 10.775162,9.61109 11.96885,10.31482 1.077776,0.63548 45.0475,1.02763 45.0475,0.40197 0,-1.66885 -3.65833,-15.53838 -4.25599,-16.13688 -1.92877,-3.99264 1.59892,-9.01126 4.84542,-5.1101 5.77194,6.93433 9.4467,8.05073 11.90558,3.61801 5.63673,-7.53503 7.83748,-7.30283 13.94595,-9.11989 5.8962,-2.23676 5.57649,-3.50129 6.87607,-5.80527 1.99766,-3.54162 0.76784,-2.59862 0.92647,-13.97557 0.10347,-7.458887 0.95475,-13.17124 0.51796,-14.549418 -0.78972,-2.132763 -1.75189,-3.721667 -3.09929,-3.368958 -0.96324,0.251782 -3.28685,-5.94777 3.07914,-10.959509 1.34124,-0.493836 2.37379,-0.04424 4.568,2.601242 4.70974,5.679884 8.24476,9.011807 9.55764,9.008524 4.16719,-0.0095 8.29495,-2.946387 10.37155,-7.379111 0.83605,-1.785573 1.32765,-2.314232 1.99111,-2.140756 0.69959,0.182444 0.94376,-0.160322 1.18546,-1.665545 0.50478,-3.148622 1.26766,-15.382218 1.3022,-20.905848 -0.23144,-3.824854 -0.43113,-6.392724 0.7333,-9.134284 0.8631,-1.045116 10.45021,-0.392814 11.88831,-0.383965 0.82268,-0.02141 3.36648,0.233586 3.96824,0.71196 M 190.8604,98.858216 c -1.50608,1.438644 -2.59125,2.719484 -5.28195,6.231474 -1.14352,1.49376 -2.38902,3.04915 -2.76718,3.45609 -2.50574,2.69896 -2.50821,2.73511 -2.31911,29.62581 l 0.0119,1.72806 2.99981,-3.20947 c 1.64994,-1.76502 4.65549,-5.07808 6.67869,-7.36186 l 3.67969,-4.15321 -0.10942,-10.16603 c -0.19386,-18.15594 -0.28197,-18.64509 -2.89296,-16.150864 m 14.15975,-0.845117 c -0.18102,0.181016 -0.32553,6.457541 -0.3206,13.948521 l 0.01,13.61879 3.81782,4.14581 c 2.09963,2.27965 5.09123,5.50146 6.64743,7.15882 l 2.82966,3.01461 0.01,-13.66977 c 0.01,-14.91197 -8.3e-4,-14.98514 -2.88718,-18.08529 -1.09096,-1.17066 -2.56164,-3.11655 -3.26946,-4.3234 -2.12594,-3.6279 -5.85089,-6.792956 -6.83573,-5.808091 m 31.51651,33.149341 c -1.62939,0.0828 -3.13963,0.32718 -3.35664,0.54255 -0.44062,0.43737 0.75551,5.88209 2.12513,9.67526 1.58828,4.39819 2.0815,7.61586 2.00755,13.07703 -0.0442,3.25138 0.12821,5.48174 0.43898,5.6741 0.2828,0.17436 0.51299,0.0716 0.51299,-0.22859 0,-0.30009 0.80648,-2.2575 1.79135,-4.3497 2.782,-5.90677 5.81138,-12.435 7.09058,-15.27699 0.64041,-1.42221 1.57266,-2.71623 2.07334,-2.87486 1.42547,-0.45216 0.5294,-1.20518 -1.43541,-1.20518 -1.74035,0 -7.77042,-3.47666 -8.13626,-4.69088 -0.0847,-0.28028 -1.42965,-0.42833 -3.11161,-0.34281 m -80.24718,2.7318 -2.16823,1.58665 -3.0397,0.85332 c -1.83819,-0.1891 -2.67922,-0.0994 -2.67922,0.28692 0,0.30911 0.20647,0.56232 0.45873,0.56232 0.94378,0 1.93271,1.55127 3.99374,6.26273 1.16574,2.66601 2.99572,6.73541 4.06691,9.04384 1.07037,2.30843 2.28128,5.02875 2.6907,6.04485 1.15258,2.86173 1.50527,1.85878 1.47159,-4.18363 -0.0305,-5.36747 1.20846,-13.04663 2.21554,-13.73718 0.499,-0.34201 1.52906,-5.0904 1.59402,-7.35283 l 0.0492,-1.70094 -3.06233,-0.19053 -3.06227,-0.19148 -2.52877,2.7162 m 33.71903,6.12872 c -0.95199,1.01859 -2.45807,2.96201 -3.3484,4.32012 -0.88948,1.3581 -2.33555,3.13546 -3.21275,3.95016 -3.51033,3.26044 -3.92881,5.10931 -3.93371,17.40456 -0.005,12.08234 -0.0143,12.0552 2.91107,8.64105 1.10568,-1.29072 3.36315,-3.90086 5.01721,-5.80234 1.65403,-1.9007 3.68132,-4.38178 4.50427,-5.51381 l 1.49704,-2.05852 -0.0283,-10.28521 c -0.0143,-5.65766 -0.0395,-10.78589 -0.0542,-11.39671 -0.0421,-1.66637 -1.38029,-1.37125 -3.35333,0.7407 m 15.00568,6.37372 c -0.1784,4.52482 -0.31484,9.69001 -0.30336,11.47972 l 0.0214,3.25386 4.86353,5.80728 c 6.50851,7.77043 8.32287,9.74591 8.95093,9.74591 0.3642,0 0.47683,-3.55968 0.36501,-11.47972 -0.19006,-13.46016 -0.0119,-12.90852 -6.4148,-19.88319 -2.45985,-2.79655 -3.69757,-4.95034 -6.58825,-7.14895 -1.48522,-1.12961 -0.66917,2.5247 -0.89445,8.22509 M 55.896338,144.9113 c -0.175308,2.07824 -0.318932,4.62099 -0.318932,5.65191 v 1.87353 l 6.788844,0.15033 c 3.733941,0.0821 6.959846,0.0214 7.167837,-0.12987 0.314889,-0.23264 -12.546796,-11.32352 -13.130498,-11.32352 -0.102996,0 -0.331325,1.70008 -0.507251,3.77752 m 284.819632,-3.09025 c -0.27039,0.37816 -3.10174,2.84361 -6.29313,5.47844 -3.19056,2.63563 -5.80151,4.97368 -5.80151,5.19646 0,0.46035 13.4108,0.0385 13.89008,-0.43736 0.17127,-0.17008 0.19791,-2.69727 0.0583,-5.61654 -0.2484,-5.21127 -0.67412,-6.27175 -1.85382,-4.621 M 57.678105,166.16873 c -0.75882,0.28195 -0.80813,4.96543 -0.09943,9.52808 0.273761,1.76502 0.633845,4.37601 0.799876,5.8015 0.421738,3.62464 0.683154,3.39115 4.151612,-3.70271 3.549785,-7.26239 4.00932,-9.82236 1.936832,-10.78589 -1.381127,-0.64202 -5.837709,-1.19368 -6.788868,-0.84098 m 278.959753,0.15533 c -5.1134,0.74567 -5.21704,2.0635 -0.87471,11.11638 3.46677,7.22707 3.93782,7.71784 4.36698,4.55197 1.64418,-12.13167 1.55703,-16.31861 -0.33463,-16.10897 -0.3058,0.0338 -1.7272,0.23263 -3.15764,0.44062 m -146.0936,5.71687 c -0.46206,0.70454 -2.74501,3.27767 -5.07235,5.71766 -5.77441,6.05312 -5.44225,4.63662 -5.32308,22.69392 l 0.10299,15.48498 2.71535,0.0854 c 1.49373,0.0469 4.32668,0.24586 6.2956,0.44227 l 3.5794,0.35599 v -23.03101 c 0,-24.57978 -0.0618,-25.16269 -2.29772,-21.74935 m 15.13557,8.8556 c 0,8.47746 -0.0578,10.30473 -0.0578,10.30473 0,0 -1.2e-4,0.61173 -9e-5,0.76908 4e-5,0.14438 0.0166,0.7777 0.0166,0.7777 0,0 0.019,2.23017 -0.083,11.99255 l -0.12393,11.69099 2.46878,-0.13558 c 1.35808,-0.0742 4.191,-0.13059 6.29558,-0.12583 l 3.82683,0.01 0.0454,-6.29229 c 0.0666,-9.0825 0.0704,-22.25163 0.01,-24.63492 -0.0502,-1.89903 -0.39624,-2.39473 -4.74428,-6.80036 -2.13576,-2.58556 -4.33251,-5.91465 -7.15965,-7.69152 -0.99079,-0.62274 -0.49325,3.70846 -0.49325,10.1373 m 71.44827,41.64728 c 2.54275,2.04537 4.8865,2.28048 16.84964,1.69105 7.59288,-0.37407 8.15435,-0.33954 9.62341,0.59029 1.28249,0.81222 2.43754,0.99226 6.50198,1.01281 15.41849,0.079 15.7589,0.0654 18.52014,4.08827 0.1175,0.1715 -4.94326,0.76534 -10.98566,1.23969 -18.79798,1.47404 -22.2212,1.84561 -26.29222,2.85678 -6.63021,1.64666 -15.1331,4.42947 -18.01046,5.89278 -19.74175,10.04439 -22.03707,10.82868 -33.18055,11.33586 -10.24415,0.46696 -15.15042,-0.19743 -26.32758,-3.56703 -4.73279,-1.42718 -12.98989,-1.28167 -21.10727,0.37241 l -5.85003,1.19119 -5.37323,-2.42434 c -10.36334,-4.67611 -10.82452,-4.73365 -27.41355,-3.41252 l -6.91299,0.55078 -4.69007,-2.26323 c -2.57974,-1.24545 -6.91299,-3.46263 -9.62836,-4.92927 -6.93849,-3.74545 -15.76778,-5.51295 -24.71546,-4.94816 -4.68181,0.29593 -12.216323,-0.73579 -20.216124,-2.76798 -2.171988,-0.55164 -5.436499,-1.00711 -7.253375,-1.0112 -3.197099,-0.01 -4.668664,-0.57711 -3.072124,-1.19038 0.428303,-0.16437 1.434528,-0.29843 2.236925,-0.29843 0.801541,0 1.949963,-0.32224 2.551767,-0.71688 0.832749,-0.54503 1.564451,-0.60671 3.068033,-0.25828 2.964489,0.68727 7.633153,0.55984 10.023835,-0.27293 1.612929,-0.56146 4.168002,-0.71933 10.615693,-0.65435 10.64122,0.1068 13.75445,-0.28025 15.74966,-1.95905 1.44197,-1.21343 15.20795,-2.3545 15.20795,-1.26031 0,0.16222 -0.93883,1.41566 -2.08645,2.78611 -3.47749,4.15323 -4.22806,6.28571 -2.21309,6.28571 1.68529,0 12.40377,-1.40989 16.64332,-2.1884 2.03712,-0.37488 6.59156,-1.05228 10.12162,-1.50608 3.5309,-0.45378 8.54402,-1.13943 11.14184,-1.52332 7.59041,-1.123 21.62437,-0.45792 22.1982,1.05227 0.60587,1.59321 0.73905,1.62775 6.68364,1.74447 0,0 3.40368,0.16984 5.05681,-0.17531 1.41457,-1.09266 0.61039,-2.1692 1.85068,-2.91313 0.97188,-0.2362 11.97601,0.12345 11.97601,0.12345 10.17919,0.0961 13.00552,0.2927 18.28831,1.26933 30.20788,5.58533 31.88001,5.47435 26.23961,-1.7379 -3.19793,-4.0891 -3.15599,-4.12033 5.11838,-3.93209 l 6.98615,0.15866 2.07499,1.66885 m -126.99598,31.92802 c -2.17279,0.35433 -4.83883,0.66425 -5.92481,0.68891 -2.87983,0.0649 -3.58028,0.63958 -2.87241,2.35287 3.02776,7.32566 5.42907,13.04003 11.26597,26.80763 3.74137,8.82604 9.32832,22.02887 12.41528,29.34059 3.08695,7.31087 5.74892,13.4207 5.91659,13.57771 0.4464,0.41927 -0.25319,-20.69624 -0.85825,-25.88366 -2.14485,-18.39683 -4.33738,-28.49214 -8.44456,-38.88263 l -3.4643,-8.76433 -2.04125,0.0592 c -1.12298,0.0319 -3.81948,0.34938 -5.99226,0.70371 m 41.31023,1.58255 c 0.0904,0.20385 2.96941,6.0358 6.39672,12.96116 3.42816,6.92448 6.79053,14.36772 7.47207,16.54051 0.68149,2.17199 1.95327,6.28245 2.82717,9.13429 2.52056,8.22753 2.83126,9.08745 3.34015,9.25678 0.26391,0.088 0.62069,-0.79167 0.79253,-1.95576 0.17197,-1.16408 0.6601,-4.00523 1.08431,-6.31366 1.17069,-6.36385 2.25914,-12.53203 2.3101,-13.08447 0.0254,-0.27124 -0.76784,-3.06887 -1.76093,-6.2167 -0.99391,-3.14779 -1.80615,-6.03581 -1.80615,-6.41889 0,-0.83856 1.62116,-5.1973 2.11609,-5.69302 0.90758,-0.90675 0.25233,-2.19087 -1.49952,-2.93982 -7.07823,-3.02367 -10.59517,-4.36776 -12.96113,-4.95311 -2.89708,-0.71686 -8.58515,-0.93472 -8.31141,-0.31731 m 60.36563,9.60038 c -4.2445,6.15753 -6.01692,8.71669 -11.99356,17.32072 l -4.03813,5.81385 -0.12987,24.38746 c -0.13725,25.77266 -0.1168,25.97656 2.00262,19.77876 0.55737,-1.62936 1.71162,-4.85034 2.56576,-7.15879 4.38917,-11.862 5.60914,-16.43778 8.42479,-31.6005 0.8328,-4.48041 2.28955,-11.59071 3.23745,-15.79984 0.94785,-4.20913 1.96808,-8.76433 2.26732,-10.1216 0.2984,-1.35812 0.86072,-3.65918 1.24959,-5.11428 1.04571,-3.9181 0.63957,-3.6353 -3.58597,2.49422 m -78.22233,33.97227 c 0,0.51707 3.44871,6.2775 8.13051,13.57852 6.10573,9.52315 9.60293,15.69052 10.35842,18.26942 0.47763,1.62939 1.48388,4.9622 2.23609,7.40626 0.7514,2.44408 1.75353,5.77684 2.22705,7.40622 0.47355,1.62939 1.24712,4.18447 1.719,5.67825 0.47185,1.4929 1.70831,5.60336 2.74746,9.13428 2.21061,7.5082 3.1971,9.18448 3.18722,5.4135 -0.01,-2.32487 0.49902,-11.15092 1.47982,-25.8483 l 0.44063,-6.61047 -5.03206,-9.75005 c -4.55441,-8.82436 -5.29016,-9.96299 -7.74659,-11.99351 -6.63513,-5.48424 -15.40275,-12.68579 -15.47346,-12.70879 -1.391,-0.44971 -4.27409,-0.43406 -4.27409,0.0255"
       stroke="none"
       fill="#6dd5c5"
       fill-rule="evenodd"
       style="fill:#000000;stroke-width:0.822097;fill-opacity:1"
       sodipodi:nodetypes="ccccscccccccccccsccccccsscssccccccscccccccccsccccscccsccccccsccccccccccsccccccccsscccscccccscccccccccscccccsccsscccccccccccccccccccccccccccsccccccscccccccccccccssccccccsccccccccscsssccscccccccccscccccccscccccccsccscccccccccscccccscscsccccscscsscscscccccccccccccsccccccccccccsccsccccccccccccsscscccccscccscccccccccccccccccscccsccscccscccsscsccscccscccscccscccccccccccccccsccscccccccccsccccsccccccccccccccccccccccccccccccccccscccscccscccccsscccccccccccccccccccccccccsccsccscccscccscccccccscccccccccccccscccscccccccccsccsccsccccccccccccccccscccccscsccccsccccscccccccccccccccccccscccscccccccscscscccccccsccccccccc"
       transform="matrix(1.2196022,0,0,1.2196022,-42.779546,-48.326305)" />
  </g>
</svg>
